<?xml version="1.0" encoding="UTF-8" standalone="no"?>
<!-- Created with Inkscape (http://www.inkscape.org/) -->

<svg
   xmlns:dc="http://purl.org/dc/elements/1.1/"
   xmlns:cc="http://creativecommons.org/ns#"
   xmlns:rdf="http://www.w3.org/1999/02/22-rdf-syntax-ns#"
   xmlns:svg="http://www.w3.org/2000/svg"
   xmlns="http://www.w3.org/2000/svg"
   xmlns:sodipodi="http://sodipodi.sourceforge.net/DTD/sodipodi-0.dtd"
   xmlns:inkscape="http://www.inkscape.org/namespaces/inkscape"
   id="svg2"
   version="1.1"
   inkscape:version="0.48.4 r9939"
   width="1488.189"
   height="1052.3622"
   xml:space="preserve"
   sodipodi:docname="scesi.svg"><metadata
     id="metadata8"><rdf:RDF><cc:Work
         rdf:about=""><dc:format>image/svg+xml</dc:format><dc:type
           rdf:resource="http://purl.org/dc/dcmitype/StillImage" /><dc:title /></cc:Work></rdf:RDF></metadata><defs
     id="defs6"><inkscape:perspective
       sodipodi:type="inkscape:persp3d"
       inkscape:vp_x="0 : 0.5 : 1"
       inkscape:vp_y="0 : 1000 : 0"
       inkscape:vp_z="1 : 0.5 : 1"
       inkscape:persp3d-origin="0.5 : 0.33333333 : 1"
       id="perspective10" /><linearGradient
       x1="0"
       y1="0"
       x2="1"
       y2="0"
       gradientUnits="userSpaceOnUse"
       gradientTransform="matrix(-1.53e-5,-493.31531,-493.31531,1.53e-5,1037.5776,1065.8604)"
       spreadMethod="pad"
       id="linearGradient26"><stop
         style="stop-opacity:1;stop-color:#9e3033"
         offset="0"
         id="stop28" /><stop
         style="stop-opacity:1;stop-color:#7a3634"
         offset="1"
         id="stop30" /></linearGradient><linearGradient
       x1="0"
       y1="0"
       x2="1"
       y2="0"
       gradientUnits="userSpaceOnUse"
       gradientTransform="matrix(-1.53e-5,-493.31531,-493.31531,1.53e-5,1347.1406,1065.8604)"
       spreadMethod="pad"
       id="linearGradient46"><stop
         style="stop-opacity:1;stop-color:#9e3033"
         offset="0"
         id="stop48" /><stop
         style="stop-opacity:1;stop-color:#7a3634"
         offset="1"
         id="stop50" /></linearGradient><linearGradient
       x1="0"
       y1="0"
       x2="1"
       y2="0"
       gradientUnits="userSpaceOnUse"
       gradientTransform="matrix(-1.53e-5,-493.31531,-493.31531,1.53e-5,1699.4839,1065.8604)"
       spreadMethod="pad"
       id="linearGradient66"><stop
         style="stop-opacity:1;stop-color:#9e3033"
         offset="0"
         id="stop68" /><stop
         style="stop-opacity:1;stop-color:#7a3634"
         offset="1"
         id="stop70" /></linearGradient><linearGradient
       x1="0"
       y1="0"
       x2="1"
       y2="0"
       gradientUnits="userSpaceOnUse"
       gradientTransform="matrix(-1.53e-5,-493.31531,-493.31531,1.53e-5,2057.8145,1065.8604)"
       spreadMethod="pad"
       id="linearGradient86"><stop
         style="stop-opacity:1;stop-color:#9e3033"
         offset="0"
         id="stop88" /><stop
         style="stop-opacity:1;stop-color:#7a3634"
         offset="1"
         id="stop90" /></linearGradient><linearGradient
       x1="0"
       y1="0"
       x2="1"
       y2="0"
       gradientUnits="userSpaceOnUse"
       gradientTransform="matrix(-1.53e-5,-493.31531,-493.31531,1.53e-5,2310.0488,1065.8604)"
       spreadMethod="pad"
       id="linearGradient106"><stop
         style="stop-opacity:1;stop-color:#9e3033"
         offset="0"
         id="stop108" /><stop
         style="stop-opacity:1;stop-color:#7a3634"
         offset="1"
         id="stop110" /></linearGradient><clipPath
       clipPathUnits="userSpaceOnUse"
       id="clipPath118"><path
         d="m 0,1133.86 3685.04,0 L 3685.04,0 0,0 0,1133.86 z"
         id="path120"
         inkscape:connector-curvature="0" /></clipPath></defs><sodipodi:namedview
     pagecolor="#ffffff"
     bordercolor="#666666"
     borderopacity="1"
     objecttolerance="1"
     gridtolerance="1"
     guidetolerance="1"
     inkscape:pageopacity="0"
     inkscape:pageshadow="2"
     inkscape:window-width="1360"
     inkscape:window-height="743"
     id="namedview4"
     showgrid="true"
     inkscape:zoom="0.42426407"
     inkscape:cx="616.44976"
     inkscape:cy="554.49579"
     inkscape:window-x="0"
     inkscape:window-y="0"
     inkscape:window-maximized="1"
     inkscape:current-layer="g12"
     showguides="false"
     inkscape:guide-bbox="true"
     inkscape:document-units="cm"
     units="cm"
     inkscape:showpageshadow="false"><sodipodi:guide
       orientation="0,1"
       position="1490.3684,1119.8307"
       id="guide3127" /><sodipodi:guide
       orientation="0,1"
       position="1520,680"
       id="guide3129" /><sodipodi:guide
       orientation="1,0"
       position="1122.0718,942.7794"
       id="guide3131" /><sodipodi:guide
       orientation="1,0"
       position="1470.198,959.96159"
       id="guide3133" /><inkscape:grid
       type="xygrid"
       id="grid3135"
       empspacing="5"
       visible="true"
       enabled="false"
       snapvisiblegridlinesonly="true" /></sodipodi:namedview><g
     inkscape:groupmode="layer"
     id="layer1"
     inkscape:label="fondo"
     transform="translate(0,-364.96205)" /><g
     id="g12"
     inkscape:groupmode="layer"
     inkscape:label="logo"
     transform="matrix(1.25,0,0,-1.25,0,1052.3629)"><g
       style="fill:#ffffff;stroke:#000000"
       id="g14"
       transform="translate(-764.37934,-207.37102)"><g
         style="fill:#ffffff;stroke:#000000"
         id="g16"><g
           style="fill:#ffffff;stroke:#000000"
           id="g22"><g
             style="fill:#ffffff;stroke:#000000"
             id="g24"><path
               d="m 951.332,855.477 c -18.943,-20.729 -28.406,-44.99 -28.406,-72.779 l 0,0 c 0,-14.35 2.162,-26.647 6.488,-36.901 l 0,0 c 7.967,-18.908 23.33,-32.803 46.089,-41.677 l 0,0 c 6.374,-2.51 19.917,-6.042 40.632,-10.596 l 0,0 c 18.433,-4.107 30.265,-7.648 35.508,-10.609 l 0,0 c 8.19,-4.568 12.288,-11.071 12.288,-19.508 l 0,0 c 0,-16.204 -11.723,-24.299 -35.157,-24.299 l 0,0 c -27.532,0 -57.339,10.49 -89.421,31.486 l 0,0 -40.727,-79.401 c 41.069,-24.418 83.388,-36.621 126.973,-36.621 l 0,0 c 49.282,0 87.495,12.094 114.652,36.279 l 0,0 c 24.18,21.442 36.278,49.056 36.278,82.824 l 0,0 c 0,26.918 -8.766,48.821 -26.291,65.71 l 0,0 c -13.885,13.462 -35.513,23.272 -64.87,29.434 l 0,0 c -20.031,4.106 -32.09,7.186 -36.187,9.24 l 0,0 c -9.108,4.368 -13.657,10.125 -13.657,17.255 l 0,0 c 0,15.648 11.251,23.472 33.76,23.472 l 0,0 c 19.089,0 39.096,-5.476 60.015,-16.428 l 0,0 37.99,72.556 c -33.318,13.691 -67.651,20.535 -103.016,20.535 l 0,0 c -50.88,0 -88.528,-13.328 -112.941,-39.972"
               style="fill:#ffffff;stroke:#000000"
               id="path32"
               inkscape:connector-curvature="0" /></g></g></g></g><g
       style="fill:#ffffff;stroke:#000000"
       id="g34"
       transform="translate(-809.05205,-208.74202)"><g
         style="fill:#ffffff;stroke:#000000"
         id="g36"><g
           style="fill:#ffffff;stroke:#000000"
           id="g42"><g
             style="fill:#ffffff;stroke:#000000"
             id="g44"><path
               d="m 1262.095,835.214 c -27.385,-31.487 -41.074,-68.226 -41.074,-110.202 l 0,0 c 0,-41.755 13.689,-78.494 41.074,-110.204 l 0,0 c 33.987,-39.244 79.962,-58.865 137.925,-58.865 l 0,0 c 25.544,0 49.967,5.817 73.24,17.453 l 0,0 0,95.487 c -20.04,-13.69 -39.377,-20.535 -58.039,-20.535 l 0,0 c -22.312,0 -40.737,7.187 -55.311,21.562 l 0,0 c -14.564,14.373 -21.837,32.737 -21.837,55.102 l 0,0 c 0,22.359 7.273,40.726 21.837,55.101 l 0,0 c 14.574,14.373 32.999,21.561 55.311,21.561 l 0,0 c 18.88,0 38.237,-6.964 58.039,-20.877 l 0,0 0,95.486 c -22.825,11.86 -47.229,17.797 -73.24,17.797 l 0,0 c -57.963,0 -103.938,-19.627 -137.925,-58.866"
               style="fill:#ffffff;stroke:#000000"
               id="path52"
               inkscape:connector-curvature="0" /></g></g></g></g><g
       style="fill:#ffffff;stroke:#000000"
       id="g54"
       transform="translate(-973.76692,-538.86503)"><g
         style="fill:#ffffff;stroke:#000000"
         id="g56"><g
           style="fill:#ffffff;stroke:#000000"
           id="g62"><g
             style="fill:#ffffff;stroke:#000000"
             id="g64"><path
               d="m 1570.8,845.481 c -30.802,-31.714 -46.203,-72.898 -46.203,-123.55 l 0,0 c 0,-42.667 12.321,-78.836 36.963,-108.492 l 0,0 c 32.855,-39.701 81.909,-59.551 147.165,-59.551 l 0,0 c 51.336,0 92.292,14.213 122.866,42.648 l 0,0 c 16.883,15.691 29.66,37.865 38.331,66.528 l 0,0 -108.833,0 c -12.484,-20.078 -30.403,-30.118 -53.771,-30.118 l 0,0 c -45.842,0 -68.754,23.84 -68.754,71.531 l 0,0 235.807,0 0,14.402 c 0,37.485 -8.327,70.398 -24.983,98.743 l 0,0 c -29.661,50.286 -79.059,75.432 -148.193,75.432 l 0,0 c -56.127,0 -99.592,-15.863 -130.395,-47.573 m 88.547,-40.37 c 11.798,11.398 27.237,17.098 46.297,17.098 l 0,0 c 34.491,0 55.711,-17.916 63.658,-53.733 l 0,0 -127.657,0 c 2.49,15.349 8.394,27.56 17.702,36.635"
               style="fill:#ffffff;stroke:#000000"
               id="path72"
               inkscape:connector-curvature="0" /></g></g></g></g><g
       style="fill:#ffffff;stroke:#000000"
       id="g74"
       transform="translate(-1645.7552,-539.54903)"><g
         style="fill:#ffffff;stroke:#000000"
         id="g76"><g
           style="fill:#ffffff;stroke:#000000"
           id="g82"><g
             style="fill:#ffffff;stroke:#000000"
             id="g84"><path
               d="m 1971.569,855.477 c -18.938,-20.729 -28.407,-44.99 -28.407,-72.779 l 0,0 c 0,-14.35 2.16,-26.647 6.484,-36.901 l 0,0 c 7.967,-18.908 23.331,-32.803 46.09,-41.677 l 0,0 c 6.378,-2.51 19.917,-6.042 40.631,-10.596 l 0,0 c 18.433,-4.107 30.269,-7.648 35.509,-10.609 l 0,0 c 8.194,-4.568 12.291,-11.071 12.291,-19.508 l 0,0 c 0,-16.204 -11.722,-24.299 -35.155,-24.299 l 0,0 c -27.531,0 -57.346,10.49 -89.421,31.486 l 0,0 -40.728,-79.401 c 41.07,-24.418 83.394,-36.621 126.973,-36.621 l 0,0 c 49.283,0 87.499,12.094 114.652,36.279 l 0,0 c 24.185,21.442 36.277,49.056 36.277,82.824 l 0,0 c 0,26.918 -8.764,48.821 -26.286,65.71 l 0,0 c -13.888,13.462 -35.516,23.272 -64.874,29.434 l 0,0 c -20.03,4.106 -32.085,7.186 -36.183,9.24 l 0,0 c -9.107,4.368 -13.661,10.125 -13.661,17.255 l 0,0 c 0,15.648 11.256,23.472 33.758,23.472 l 0,0 c 19.09,0 39.102,-5.476 60.018,-16.428 l 0,0 37.988,72.556 c -33.312,13.691 -67.65,20.535 -103.016,20.535 l 0,0 c -50.879,0 -88.526,-13.328 -112.94,-39.972"
               style="fill:#ffffff;stroke:#000000"
               id="path92"
               inkscape:connector-curvature="0" /></g></g></g></g><g
       style="fill:#ffffff;stroke:#000000"
       id="g94"
       transform="translate(-2236.1508,-535.52803)"><g
         style="fill:#ffffff;stroke:#000000"
         id="g96"><g
           style="fill:#ffffff;stroke:#000000"
           id="g102"><g
             style="fill:#ffffff;stroke:#000000"
             id="g104"><path
               d="m 2265.33,1050.705 c -12.169,-12.169 -18.254,-27.019 -18.254,-44.54 l 0,0 c 0,-17.525 6.085,-32.428 18.254,-44.715 l 0,0 c 12.178,-12.288 27.027,-18.429 44.549,-18.429 l 0,0 c 17.748,0 32.712,6.085 44.881,18.258 l 0,0 c 12.167,12.169 18.262,27.132 18.262,44.886 l 0,0 c 0,17.521 -6.14,32.371 -18.434,44.54 l 0,0 c -12.292,12.173 -27.189,18.262 -44.709,18.262 l 0,0 c -17.522,0 -32.371,-6.089 -44.549,-18.262 m -11.751,-484.154 112.598,0 0,317.604 -112.598,0 0,-317.604 z"
               style="fill:#ffffff;stroke:#000000"
               id="path112"
               inkscape:connector-curvature="0" /></g></g></g></g><g
       id="g114"
       transform="translate(-1517.6648,294.00131)" /><text
       xml:space="preserve"
       style="font-size:76.80000305px;font-style:normal;font-variant:normal;font-weight:normal;font-stretch:normal;line-height:125%;letter-spacing:0px;word-spacing:0px;fill:#ffffff;fill-opacity:1;stroke:#000000;font-family:Helvetica LT Std;-inkscape-font-specification:Helvetica LT Std"
       x="9.4280901"
       y="-772.62872"
       id="text3642"
       sodipodi:linespacing="125%"
       transform="scale(1,-1)"><tspan
         sodipodi:role="line"
         x="9.4280901"
         y="-772.62872"
         style="font-size:76.80000305px;fill:#ffffff;stroke:#000000"
         id="tspan3691">sociedad científica de estudiantes</tspan></text>
<g
       id="g3584"
       transform="matrix(-0.13162397,-0.99129972,0.99129972,-0.13162397,1760.747,1714.6073)"
       style="fill:#ffffff;stroke:#000000"><path
         inkscape:connector-curvature="0"
         id="path124"
         style="fill:#ffffff;fill-opacity:1;fill-rule:nonzero;stroke:#000000"
         d="m 1400.0369,-791.73224 c 21.847,21.258 25.108,55.899 6.418,80.988 -18.7,25.098 -52.849,31.886 -79.448,17.027 -1.674,-0.818 -3.299,-1.778 -4.839,-2.928 l -100.877,-75.171 c -13.091,-9.763 -15.811,-28.311 -6.037,-41.411 l 38.312,-51.422 c 9.773,-13.109 28.322,-15.819 41.421,-6.046 l 100.868,75.16 c 1.54,1.151 2.938,2.444 4.182,3.803" /><path
         inkscape:connector-curvature="0"
         id="path128"
         style="fill:#ffffff;fill-opacity:1;fill-rule:nonzero;stroke:#000000"
         d="m 1405.0477,-724.91774 -3.727,8.992 c 45.595,18.843 71.273,41.651 70.455,62.555 -0.761,19.471 -25.659,38.132 -70.093,52.554 -45.557,14.793 -109.177,2.748 -170.699,-8.899 -62.29,-11.778 -121.132,-22.921 -151.42,-2.11 -10.629,7.302 -17.336,18.244 -19.927,32.513 -4.349,23.919 1.226,45.377 16.585,63.782 54.369,65.15 213.328,74.875 303.233,74.875 171.456,0 362.714,-30.612 364.625,-30.925 l -1.559,-9.603 c -1.902,0.305 -192.418,30.793 -363.066,30.793 -150.102,0 -257.9,-26.02 -295.761,-71.386 -13.418,-16.077 -18.291,-34.842 -14.483,-55.787 2.148,-11.797 7.334,-20.373 15.866,-26.238 26.943,-18.51 83.846,-7.748 144.1,3.659 62.73,11.866 127.604,24.148 175.51,8.585 50.015,-16.227 75.854,-36.895 76.814,-61.432 1.008,-25.593 -26.152,-51.138 -76.453,-71.928" /></g><text
       xml:space="preserve"
       style="font-size:76.80000305px;font-style:normal;font-variant:normal;font-weight:normal;font-stretch:normal;line-height:125%;letter-spacing:0px;word-spacing:0px;fill:#ffffff;fill-opacity:1;stroke:#000000;stroke-width:1;font-family:Helvetica LT Std;-inkscape-font-specification:Helvetica LT Std"
       x="11.083308"
       y="-699.32733"
       id="text3642-7"
       sodipodi:linespacing="125%"
       transform="scale(1,-1)"><tspan
         sodipodi:role="line"
         x="11.083308"
         y="-699.32733"
         style="font-size:76.80000305px;fill:#ffffff;stroke:#000000;stroke-width:1"
         id="tspan3691-1">de sistemas e informática</tspan></text>
<text
       xml:space="preserve"
       style="font-size:76.80000305px;font-style:normal;font-variant:normal;font-weight:normal;font-stretch:normal;line-height:125%;letter-spacing:0px;word-spacing:0px;fill:#ffffff;fill-opacity:1;stroke:#000000;stroke-width:1;font-family:Helvetica LT Std;-inkscape-font-specification:Helvetica LT Std"
       x="-572.67114"
       y="-438.13864"
       id="text3642-7-4"
       sodipodi:linespacing="125%"
       transform="scale(1,-1)"><tspan
         sodipodi:role="line"
         x="-572.67114"
         y="-438.13864"
         style="font-size:76.80000305px;fill:#ffffff;stroke:#000000;stroke-width:1"
         id="tspan3691-1-2">x</tspan></text>
</g></svg>