<?xml version="1.0" encoding="UTF-8" standalone="no"?>
<!-- Created with Inkscape (http://www.inkscape.org/) -->

<svg
   xmlns:dc="http://purl.org/dc/elements/1.1/"
   xmlns:cc="http://creativecommons.org/ns#"
   xmlns:rdf="http://www.w3.org/1999/02/22-rdf-syntax-ns#"
   xmlns:svg="http://www.w3.org/2000/svg"
   xmlns="http://www.w3.org/2000/svg"
   xmlns:sodipodi="http://sodipodi.sourceforge.net/DTD/sodipodi-0.dtd"
   xmlns:inkscape="http://www.inkscape.org/namespaces/inkscape"
   id="svg2"
   version="1.1"
   inkscape:version="0.47 r22583"
   width="4606.3"
   height="1417.325"
   xml:space="preserve"
   sodipodi:docname="New document 1"><metadata
     id="metadata8"><rdf:RDF><cc:Work
         rdf:about=""><dc:format>image/svg+xml</dc:format><dc:type
           rdf:resource="http://purl.org/dc/dcmitype/StillImage" /><dc:title></dc:title></cc:Work></rdf:RDF></metadata><defs
     id="defs6"><inkscape:perspective
       sodipodi:type="inkscape:persp3d"
       inkscape:vp_x="0 : 0.5 : 1"
       inkscape:vp_y="0 : 1000 : 0"
       inkscape:vp_z="1 : 0.5 : 1"
       inkscape:persp3d-origin="0.5 : 0.33333333 : 1"
       id="perspective10" /><linearGradient
       x1="0"
       y1="0"
       x2="1"
       y2="0"
       gradientUnits="userSpaceOnUse"
       gradientTransform="matrix(-1.53e-5,-493.31531,-493.31531,1.53e-5,1037.5776,1065.8604)"
       spreadMethod="pad"
       id="linearGradient26"><stop
         style="stop-opacity:1;stop-color:#9e3033"
         offset="0"
         id="stop28" /><stop
         style="stop-opacity:1;stop-color:#7a3634"
         offset="1"
         id="stop30" /></linearGradient><linearGradient
       x1="0"
       y1="0"
       x2="1"
       y2="0"
       gradientUnits="userSpaceOnUse"
       gradientTransform="matrix(-1.53e-5,-493.31531,-493.31531,1.53e-5,1347.1406,1065.8604)"
       spreadMethod="pad"
       id="linearGradient46"><stop
         style="stop-opacity:1;stop-color:#9e3033"
         offset="0"
         id="stop48" /><stop
         style="stop-opacity:1;stop-color:#7a3634"
         offset="1"
         id="stop50" /></linearGradient><linearGradient
       x1="0"
       y1="0"
       x2="1"
       y2="0"
       gradientUnits="userSpaceOnUse"
       gradientTransform="matrix(-1.53e-5,-493.31531,-493.31531,1.53e-5,1699.4839,1065.8604)"
       spreadMethod="pad"
       id="linearGradient66"><stop
         style="stop-opacity:1;stop-color:#9e3033"
         offset="0"
         id="stop68" /><stop
         style="stop-opacity:1;stop-color:#7a3634"
         offset="1"
         id="stop70" /></linearGradient><linearGradient
       x1="0"
       y1="0"
       x2="1"
       y2="0"
       gradientUnits="userSpaceOnUse"
       gradientTransform="matrix(-1.53e-5,-493.31531,-493.31531,1.53e-5,2057.8145,1065.8604)"
       spreadMethod="pad"
       id="linearGradient86"><stop
         style="stop-opacity:1;stop-color:#9e3033"
         offset="0"
         id="stop88" /><stop
         style="stop-opacity:1;stop-color:#7a3634"
         offset="1"
         id="stop90" /></linearGradient><linearGradient
       x1="0"
       y1="0"
       x2="1"
       y2="0"
       gradientUnits="userSpaceOnUse"
       gradientTransform="matrix(-1.53e-5,-493.31531,-493.31531,1.53e-5,2310.0488,1065.8604)"
       spreadMethod="pad"
       id="linearGradient106"><stop
         style="stop-opacity:1;stop-color:#9e3033"
         offset="0"
         id="stop108" /><stop
         style="stop-opacity:1;stop-color:#7a3634"
         offset="1"
         id="stop110" /></linearGradient><clipPath
       clipPathUnits="userSpaceOnUse"
       id="clipPath118"><path
         d="m 0,1133.86 3685.04,0 L 3685.04,0 0,0 0,1133.86 z"
         id="path120" /></clipPath></defs><sodipodi:namedview
     pagecolor="#ffffff"
     bordercolor="#666666"
     borderopacity="1"
     objecttolerance="10"
     gridtolerance="10"
     guidetolerance="10"
     inkscape:pageopacity="0"
     inkscape:pageshadow="2"
     inkscape:window-width="1280"
     inkscape:window-height="719"
     id="namedview4"
     showgrid="false"
     inkscape:zoom="0.11831622"
     inkscape:cx="2303.1499"
     inkscape:cy="708.66248"
     inkscape:window-x="0"
     inkscape:window-y="24"
     inkscape:window-maximized="1"
     inkscape:current-layer="g116" /><g
     id="g12"
     inkscape:groupmode="layer"
     inkscape:label="logo"
     transform="matrix(1.25,0,0,-1.25,0,1417.325)"><g
       id="g14"><g
         id="g16"><g
           id="g22"><g
             id="g24"><path
               d="m 951.332,855.477 c -18.943,-20.729 -28.406,-44.99 -28.406,-72.779 l 0,0 c 0,-14.35 2.162,-26.647 6.488,-36.901 l 0,0 c 7.967,-18.908 23.33,-32.803 46.089,-41.677 l 0,0 c 6.374,-2.51 19.917,-6.042 40.632,-10.596 l 0,0 c 18.433,-4.107 30.265,-7.648 35.508,-10.609 l 0,0 c 8.19,-4.568 12.288,-11.071 12.288,-19.508 l 0,0 c 0,-16.204 -11.723,-24.299 -35.157,-24.299 l 0,0 c -27.532,0 -57.339,10.49 -89.421,31.486 l 0,0 -40.727,-79.401 c 41.069,-24.418 83.388,-36.621 126.973,-36.621 l 0,0 c 49.282,0 87.495,12.094 114.652,36.279 l 0,0 c 24.18,21.442 36.278,49.056 36.278,82.824 l 0,0 c 0,26.918 -8.766,48.821 -26.291,65.71 l 0,0 c -13.885,13.462 -35.513,23.272 -64.87,29.434 l 0,0 c -20.031,4.106 -32.09,7.186 -36.187,9.24 l 0,0 c -9.108,4.368 -13.657,10.125 -13.657,17.255 l 0,0 c 0,15.648 11.251,23.472 33.76,23.472 l 0,0 c 19.089,0 39.096,-5.476 60.015,-16.428 l 0,0 37.99,72.556 c -33.318,13.691 -67.651,20.535 -103.016,20.535 l 0,0 c -50.88,0 -88.528,-13.328 -112.941,-39.972"
               style="fill:url(#linearGradient26);stroke:none"
               id="path32" /></g></g></g></g><g
       id="g34"><g
         id="g36"><g
           id="g42"><g
             id="g44"><path
               d="m 1262.095,835.214 c -27.385,-31.487 -41.074,-68.226 -41.074,-110.202 l 0,0 c 0,-41.755 13.689,-78.494 41.074,-110.204 l 0,0 c 33.987,-39.244 79.962,-58.865 137.925,-58.865 l 0,0 c 25.544,0 49.967,5.817 73.24,17.453 l 0,0 0,95.487 c -20.04,-13.69 -39.377,-20.535 -58.039,-20.535 l 0,0 c -22.312,0 -40.737,7.187 -55.311,21.562 l 0,0 c -14.564,14.373 -21.837,32.737 -21.837,55.102 l 0,0 c 0,22.359 7.273,40.726 21.837,55.101 l 0,0 c 14.574,14.373 32.999,21.561 55.311,21.561 l 0,0 c 18.88,0 38.237,-6.964 58.039,-20.877 l 0,0 0,95.486 c -22.825,11.86 -47.229,17.797 -73.24,17.797 l 0,0 c -57.963,0 -103.938,-19.627 -137.925,-58.866"
               style="fill:url(#linearGradient46);stroke:none"
               id="path52" /></g></g></g></g><g
       id="g54"><g
         id="g56"><g
           id="g62"><g
             id="g64"><path
               d="m 1570.8,845.481 c -30.802,-31.714 -46.203,-72.898 -46.203,-123.55 l 0,0 c 0,-42.667 12.321,-78.836 36.963,-108.492 l 0,0 c 32.855,-39.701 81.909,-59.551 147.165,-59.551 l 0,0 c 51.336,0 92.292,14.213 122.866,42.648 l 0,0 c 16.883,15.691 29.66,37.865 38.331,66.528 l 0,0 -108.833,0 c -12.484,-20.078 -30.403,-30.118 -53.771,-30.118 l 0,0 c -45.842,0 -68.754,23.84 -68.754,71.531 l 0,0 235.807,0 0,14.402 c 0,37.485 -8.327,70.398 -24.983,98.743 l 0,0 c -29.661,50.286 -79.059,75.432 -148.193,75.432 l 0,0 c -56.127,0 -99.592,-15.863 -130.395,-47.573 m 88.547,-40.37 c 11.798,11.398 27.237,17.098 46.297,17.098 l 0,0 c 34.491,0 55.711,-17.916 63.658,-53.733 l 0,0 -127.657,0 c 2.49,15.349 8.394,27.56 17.702,36.635"
               style="fill:url(#linearGradient66);stroke:none"
               id="path72" /></g></g></g></g><g
       id="g74"><g
         id="g76"><g
           id="g82"><g
             id="g84"><path
               d="m 1971.569,855.477 c -18.938,-20.729 -28.407,-44.99 -28.407,-72.779 l 0,0 c 0,-14.35 2.16,-26.647 6.484,-36.901 l 0,0 c 7.967,-18.908 23.331,-32.803 46.09,-41.677 l 0,0 c 6.378,-2.51 19.917,-6.042 40.631,-10.596 l 0,0 c 18.433,-4.107 30.269,-7.648 35.509,-10.609 l 0,0 c 8.194,-4.568 12.291,-11.071 12.291,-19.508 l 0,0 c 0,-16.204 -11.722,-24.299 -35.155,-24.299 l 0,0 c -27.531,0 -57.346,10.49 -89.421,31.486 l 0,0 -40.728,-79.401 c 41.07,-24.418 83.394,-36.621 126.973,-36.621 l 0,0 c 49.283,0 87.499,12.094 114.652,36.279 l 0,0 c 24.185,21.442 36.277,49.056 36.277,82.824 l 0,0 c 0,26.918 -8.764,48.821 -26.286,65.71 l 0,0 c -13.888,13.462 -35.516,23.272 -64.874,29.434 l 0,0 c -20.03,4.106 -32.085,7.186 -36.183,9.24 l 0,0 c -9.107,4.368 -13.661,10.125 -13.661,17.255 l 0,0 c 0,15.648 11.256,23.472 33.758,23.472 l 0,0 c 19.09,0 39.102,-5.476 60.018,-16.428 l 0,0 37.988,72.556 c -33.312,13.691 -67.65,20.535 -103.016,20.535 l 0,0 c -50.879,0 -88.526,-13.328 -112.94,-39.972"
               style="fill:url(#linearGradient86);stroke:none"
               id="path92" /></g></g></g></g><g
       id="g94"><g
         id="g96"><g
           id="g102"><g
             id="g104"><path
               d="m 2265.33,1050.705 c -12.169,-12.169 -18.254,-27.019 -18.254,-44.54 l 0,0 c 0,-17.525 6.085,-32.428 18.254,-44.715 l 0,0 c 12.178,-12.288 27.027,-18.429 44.549,-18.429 l 0,0 c 17.748,0 32.712,6.085 44.881,18.258 l 0,0 c 12.167,12.169 18.262,27.132 18.262,44.886 l 0,0 c 0,17.521 -6.14,32.371 -18.434,44.54 l 0,0 c -12.292,12.173 -27.189,18.262 -44.709,18.262 l 0,0 c -17.522,0 -32.371,-6.089 -44.549,-18.262 m -11.751,-484.154 112.598,0 0,317.604 -112.598,0 0,-317.604 z"
               style="fill:url(#linearGradient106);stroke:none"
               id="path112" /></g></g></g></g><g
       id="g114"><g
         id="g116"
         clip-path="url(#clipPath118)"><g
           id="g122"
           transform="translate(1975.7324,148.3662)"><path
             d="m 0,0 c 21.847,21.258 25.108,55.899 6.418,80.988 -18.7,25.098 -52.849,31.886 -79.448,17.027 -1.674,-0.818 -3.299,-1.778 -4.839,-2.928 L -178.746,19.916 c -13.091,-9.763 -15.811,-28.311 -6.037,-41.411 l 38.312,-51.422 c 9.773,-13.109 28.322,-15.819 41.421,-6.046 L -4.182,-3.803 C -2.642,-2.652 -1.244,-1.359 0,0"
             style="fill:#2d2c2e;fill-opacity:1;fill-rule:nonzero;stroke:none"
             id="path124" /></g><g
           id="g126"
           transform="translate(1980.7432,215.1807)"><path
             d="m 0,0 -3.727,8.992 c 45.595,18.843 71.273,41.651 70.455,62.555 -0.761,19.471 -25.659,38.132 -70.093,52.554 -45.557,14.793 -109.177,2.748 -170.699,-8.899 -62.29,-11.778 -121.132,-22.921 -151.42,-2.11 -10.629,7.302 -17.336,18.244 -19.927,32.513 -4.349,23.919 1.226,45.377 16.585,63.782 54.369,65.15 213.328,74.875 303.233,74.875 171.456,0 362.714,-30.612 364.625,-30.925 l -1.559,-9.603 c -1.902,0.305 -192.418,30.793 -363.066,30.793 -150.102,0 -257.9,-26.02 -295.761,-71.386 -13.418,-16.077 -18.291,-34.842 -14.483,-55.787 2.148,-11.797 7.334,-20.373 15.866,-26.238 26.943,-18.51 83.846,-7.748 144.1,3.659 62.73,11.866 127.604,24.148 175.51,8.585 C 49.654,117.133 75.493,96.465 76.453,71.928 77.461,46.335 50.301,20.79 0,0"
             style="fill:#2d2c2e;fill-opacity:1;fill-rule:nonzero;stroke:none"
             id="path128" /></g><g
           id="g130"
           transform="translate(2411.2783,856.7612)"><path
             d="m 0,0 c 0.181,-4.44 4.03,-5.837 8.118,-5.837 3.09,0 7.292,0.699 7.292,4.492 0,3.854 -4.896,4.496 -9.859,5.604 -4.905,1.112 -9.867,2.747 -9.867,8.523 0,6.074 6.008,8.584 11.265,8.584 6.655,0 11.969,-2.1 12.378,-9.459 l -4.963,0 c -0.351,3.855 -3.736,5.082 -7.006,5.082 -2.976,0 -6.418,-0.818 -6.418,-3.856 0,-3.56 5.248,-4.145 9.859,-5.252 4.963,-1.112 9.869,-2.743 9.869,-8.585 0,-7.177 -6.712,-9.511 -12.845,-9.511 -6.767,0 -12.492,2.742 -12.786,10.215 L 0,0 z"
             style="fill:#2d2c2e;fill-opacity:1;fill-rule:nonzero;stroke:none"
             id="path132" /></g><g
           id="g134"
           transform="translate(2450.4648,850.9238)"><path
             d="m 0,0 c 5.199,0 9.402,4.083 9.402,11.385 0,7.353 -4.203,11.441 -9.402,11.441 -5.19,0 -9.393,-4.088 -9.393,-11.441 C -9.393,4.083 -5.19,0 0,0 m 0,27.204 c 9.574,0 14.66,-6.95 14.66,-15.819 C 14.66,2.567 9.574,-4.378 0,-4.378 c -9.574,0 -14.65,6.945 -14.65,15.763 0,8.869 5.076,15.819 14.65,15.819"
             style="fill:#2d2c2e;fill-opacity:1;fill-rule:nonzero;stroke:none"
             id="path136" /></g><g
           id="g138"
           transform="translate(2491.4678,867.7363)"><path
             d="m 0,0 c -0.751,3.793 -3.384,6.014 -7.473,6.014 -7.177,0 -9.392,-5.666 -9.392,-11.794 0,-5.547 2.51,-11.033 8.812,-11.033 4.782,0 7.644,2.8 8.29,7.354 l 5.076,0 C 4.202,-16.813 -0.409,-21.19 -7.995,-21.19 c -9.222,0 -14.128,6.421 -14.128,15.41 0,9.046 4.669,16.171 14.241,16.171 C -1.046,10.391 4.44,7.178 5.144,0 L 0,0 z"
             style="fill:#2d2c2e;fill-opacity:1;fill-rule:nonzero;stroke:none"
             id="path140" /></g><path
           d="m 2502.638,877.424 4.963,0 0,-30.179 -4.963,0 0,30.179 z m 4.963,5.433 -4.963,0 0,6.07 4.963,0 0,-6.07 z"
           style="fill:#2d2c2e;fill-opacity:1;fill-rule:nonzero;stroke:none"
           id="path142" /><g
           id="g144"
           transform="translate(2536.2637,865.2271)"><path
             d="m 0,0 c -0.229,4.725 -3.793,8.523 -8.689,8.523 -5.201,0 -8.29,-3.912 -8.642,-8.523 L 0,0 z m 4.792,-8.409 c -1.341,-6.655 -6.133,-10.272 -12.901,-10.272 -9.631,0 -14.184,6.655 -14.479,15.876 0,9.051 5.951,15.705 14.185,15.705 10.684,0 13.956,-9.982 13.661,-17.278 l -22.589,0 c -0.181,-5.257 2.796,-9.925 9.393,-9.925 4.087,0 6.949,1.982 7.824,5.894 l 4.906,0 z"
             style="fill:#2d2c2e;fill-opacity:1;fill-rule:nonzero;stroke:none"
             id="path146" /></g><g
           id="g148"
           transform="translate(2559.6318,850.9238)"><path
             d="m 0,0 c 6.655,0 9.221,5.718 9.221,11.385 0,5.951 -2.681,11.441 -9.507,11.441 -6.777,0 -9.05,-5.78 -9.05,-11.68 C -9.336,5.485 -6.417,0 0,0 m 14.013,-3.679 -4.963,0 0,4.088 -0.113,0 C 7.301,-2.918 3.45,-4.378 -0.694,-4.378 c -9.289,0 -13.899,7.354 -13.899,15.877 0,8.522 4.554,15.705 13.776,15.705 3.098,0 7.529,-1.17 9.754,-4.73 l 0.113,0 0,15.529 4.963,0 0,-41.682 z"
             style="fill:#2d2c2e;fill-opacity:1;fill-rule:nonzero;stroke:none"
             id="path150" /></g><g
           id="g152"
           transform="translate(2599.9883,862.8311)"><path
             d="m 0,0 c -1.93,-1.402 -5.666,-1.459 -8.994,-2.044 -3.271,-0.584 -6.066,-1.749 -6.066,-5.429 0,-3.27 2.795,-4.434 5.837,-4.434 6.541,0 9.223,4.083 9.223,6.83 L 0,0 z m 8.053,-15.468 c -0.875,-0.527 -1.979,-0.817 -3.557,-0.817 -2.566,0 -4.201,1.397 -4.201,4.668 -2.748,-3.209 -6.428,-4.668 -10.63,-4.668 -5.485,0 -9.981,2.448 -9.981,8.461 0,6.83 5.077,8.29 10.219,9.283 5.486,1.051 10.154,0.699 10.154,4.436 0,4.32 -3.556,5.024 -6.711,5.024 -4.203,0 -7.303,-1.289 -7.531,-5.723 l -4.962,0 c 0.295,7.472 6.065,10.1 12.787,10.1 5.428,0 11.322,-1.226 11.322,-8.289 l 0,-15.53 c 0,-2.333 0,-3.384 1.579,-3.384 0.408,0 0.875,0.057 1.512,0.29 l 0,-3.851 z"
             style="fill:#2d2c2e;fill-opacity:1;fill-rule:nonzero;stroke:none"
             id="path154" /></g><g
           id="g156"
           transform="translate(2625.6279,850.9238)"><path
             d="m 0,0 c 6.654,0 9.222,5.718 9.222,11.385 0,5.951 -2.681,11.441 -9.507,11.441 -6.778,0 -9.051,-5.78 -9.051,-11.68 C -9.336,5.485 -6.417,0 0,0 m 14.013,-3.679 -4.962,0 0,4.088 -0.114,0 c -1.635,-3.327 -5.486,-4.787 -9.631,-4.787 -9.288,0 -13.899,7.354 -13.899,15.877 0,8.522 4.553,15.705 13.776,15.705 3.098,0 7.529,-1.17 9.754,-4.73 l 0.114,0 0,15.529 4.962,0 0,-41.682 z"
             style="fill:#2d2c2e;fill-opacity:1;fill-rule:nonzero;stroke:none"
             id="path158" /></g><g
           id="g160"
           transform="translate(2428.7324,797.6431)"><path
             d="m 0,0 c -0.752,3.793 -3.384,6.013 -7.473,6.013 -7.177,0 -9.392,-5.666 -9.392,-11.793 0,-5.548 2.51,-11.033 8.812,-11.033 4.782,0 7.644,2.8 8.29,7.354 l 5.077,0 c -1.112,-7.354 -5.723,-11.732 -13.309,-11.732 -9.222,0 -14.128,6.422 -14.128,15.411 0,9.045 4.669,16.171 14.241,16.171 C -1.046,10.391 4.439,7.177 5.143,0 L 0,0 z"
             style="fill:#2d2c2e;fill-opacity:1;fill-rule:nonzero;stroke:none"
             id="path162" /></g><path
           d="m 2439.902,807.331 4.963,0 0,-30.18 -4.963,0 0,30.18 z m 4.963,5.432 -4.963,0 0,6.071 4.963,0 0,-6.071 z"
           style="fill:#2d2c2e;fill-opacity:1;fill-rule:nonzero;stroke:none"
           id="path164" /><g
           id="g166"
           transform="translate(2473.5283,795.1333)"><path
             d="M 0,0 C -0.228,4.725 -3.794,8.523 -8.688,8.523 -13.89,8.523 -16.979,4.611 -17.331,0 L 0,0 z m 4.791,-8.409 c -1.34,-6.655 -6.132,-10.272 -12.9,-10.272 -9.63,0 -14.185,6.655 -14.48,15.876 0,9.051 5.952,15.705 14.186,15.705 10.685,0 13.955,-9.982 13.66,-17.278 l -22.588,0 c -0.181,-5.257 2.796,-9.925 9.393,-9.925 4.087,0 6.95,1.982 7.825,5.894 l 4.904,0 z"
             style="fill:#2d2c2e;fill-opacity:1;fill-rule:nonzero;stroke:none"
             id="path168" /></g><g
           id="g170"
           transform="translate(2483.9385,807.3306)"><path
             d="m 0,0 4.667,0 0,-4.787 0.124,0 c 2.101,3.737 5.485,5.49 9.802,5.49 7.937,0 10.39,-4.553 10.39,-11.032 l 0,-19.851 -4.962,0 0,20.43 c 0,3.68 -2.329,6.076 -6.131,6.076 -6.009,0 -8.927,-4.031 -8.927,-9.46 l 0,-17.046 L 0,-30.18 0,0 z"
             style="fill:#2d2c2e;fill-opacity:1;fill-rule:nonzero;stroke:none"
             id="path172" /></g><g
           id="g174"
           transform="translate(2523.3066,807.3306)"><path
             d="m 0,0 6.008,0 0,-4.378 -6.008,0 0,-18.738 c 0,-2.277 0.637,-2.686 3.736,-2.686 l 2.272,0 0,-4.378 -3.793,0 c -5.134,0 -7.178,1.051 -7.178,6.598 l 0,19.204 -5.143,0 0,4.378 5.143,0 0,9.05 L 0,9.05 0,0 z"
             style="fill:#2d2c2e;fill-opacity:1;fill-rule:nonzero;stroke:none"
             id="path176" /></g><path
           d="m 2535.104,807.331 4.963,0 0,-30.18 -4.963,0 0,30.18 z m 3.907,12.496 6.36,0 -7.642,-8.352 -3.737,0 5.019,8.352 z"
           style="fill:#2d2c2e;fill-opacity:1;fill-rule:nonzero;stroke:none"
           id="path178" /><path
           d="m 2565.345,807.331 4.963,0 0,-30.18 -4.963,0 0,30.18 z m 0,11.503 4.963,0 0,-6.071 -4.963,0 0,6.071 z m -15.525,-15.881 -5.076,0 0,4.378 5.076,0 0,4.496 c 0,4.905 2.919,7.472 8.348,7.472 0.932,0 2.281,-0.175 3.213,-0.465 l 0,-4.321 c -0.875,0.29 -1.93,0.409 -2.804,0.409 -2.396,0 -3.794,-0.761 -3.794,-3.385 l 0,-4.206 5.837,0 0,-4.378 -5.837,0 0,-25.802 -4.963,0 0,25.802 z"
           style="fill:#2d2c2e;fill-opacity:1;fill-rule:nonzero;stroke:none"
           id="path180" /><g
           id="g182"
           transform="translate(2598.5244,797.6431)"><path
             d="m 0,0 c -0.752,3.793 -3.386,6.013 -7.473,6.013 -7.177,0 -9.393,-5.666 -9.393,-11.793 0,-5.548 2.51,-11.033 8.813,-11.033 4.782,0 7.644,2.8 8.29,7.354 l 5.076,0 c -1.112,-7.354 -5.722,-11.732 -13.309,-11.732 -9.222,0 -14.127,6.422 -14.127,15.411 0,9.045 4.667,16.171 14.241,16.171 C -1.047,10.391 4.438,7.177 5.142,0 L 0,0 z"
             style="fill:#2d2c2e;fill-opacity:1;fill-rule:nonzero;stroke:none"
             id="path184" /></g><g
           id="g186"
           transform="translate(2628.0801,792.7373)"><path
             d="m 0,0 c -1.93,-1.402 -5.666,-1.459 -8.993,-2.044 -3.271,-0.584 -6.066,-1.749 -6.066,-5.428 0,-3.27 2.795,-4.435 5.838,-4.435 6.54,0 9.221,4.083 9.221,6.83 L 0,0 z m 8.053,-15.468 c -0.875,-0.527 -1.978,-0.817 -3.555,-0.817 -2.568,0 -4.203,1.397 -4.203,4.668 -2.747,-3.209 -6.427,-4.668 -10.628,-4.668 -5.486,0 -9.983,2.448 -9.983,8.461 0,6.831 5.078,8.29 10.22,9.283 5.486,1.051 10.153,0.699 10.153,4.436 0,4.32 -3.555,5.024 -6.711,5.024 -4.202,0 -7.302,-1.288 -7.53,-5.723 l -4.962,0 c 0.294,7.472 6.075,10.1 12.787,10.1 5.427,0 11.322,-1.226 11.322,-8.289 l 0,-15.529 c 0,-2.335 0,-3.385 1.578,-3.385 0.409,0 0.874,0.057 1.512,0.29 l 0,-3.851 z"
             style="fill:#2d2c2e;fill-opacity:1;fill-rule:nonzero;stroke:none"
             id="path188" /></g><g
           id="g190"
           transform="translate(2669.958,780.8301)"><path
             d="m 0,0 c 6.654,0 9.222,5.718 9.222,11.384 0,5.951 -2.681,11.442 -9.507,11.442 -6.778,0 -9.05,-5.78 -9.05,-11.679 C -9.335,5.485 -6.417,0 0,0 m 14.013,-3.679 -4.962,0 0,4.088 -0.114,0 c -1.635,-3.327 -5.486,-4.787 -9.631,-4.787 -9.288,0 -13.899,7.354 -13.899,15.877 0,8.522 4.554,15.705 13.775,15.705 3.099,0 7.53,-1.17 9.755,-4.729 l 0.114,0 0,15.529 4.962,0 0,-41.683 z"
             style="fill:#2d2c2e;fill-opacity:1;fill-rule:nonzero;stroke:none"
             id="path192" /></g><g
           id="g194"
           transform="translate(2712.5859,795.1333)"><path
             d="M 0,0 C -0.228,4.725 -3.793,8.523 -8.688,8.523 -13.889,8.523 -16.979,4.611 -17.33,0 L 0,0 z m 4.792,-8.409 c -1.341,-6.655 -6.132,-10.272 -12.901,-10.272 -9.63,0 -14.184,6.655 -14.479,15.876 0,9.051 5.951,15.705 14.185,15.705 10.685,0 13.956,-9.982 13.661,-17.278 l -22.588,0 c -0.182,-5.257 2.795,-9.925 9.392,-9.925 4.088,0 6.95,1.982 7.825,5.894 l 4.905,0 z"
             style="fill:#2d2c2e;fill-opacity:1;fill-rule:nonzero;stroke:none"
             id="path196" /></g><g
           id="g198"
           transform="translate(2429.1982,725.0439)"><path
             d="M 0,0 C -0.229,4.725 -3.794,8.523 -8.688,8.523 -13.89,8.523 -16.979,4.611 -17.331,0 L 0,0 z m 4.791,-8.409 c -1.34,-6.654 -6.132,-10.271 -12.9,-10.271 -9.63,0 -14.185,6.655 -14.48,15.876 0,9.05 5.952,15.705 14.186,15.705 10.685,0 13.955,-9.982 13.66,-17.279 l -22.588,0 c -0.181,-5.257 2.795,-9.925 9.393,-9.925 4.088,0 6.95,1.982 7.824,5.894 l 4.905,0 z"
             style="fill:#2d2c2e;fill-opacity:1;fill-rule:nonzero;stroke:none"
             id="path200" /></g><g
           id="g202"
           transform="translate(2442.6406,716.5781)"><path
             d="m 0,0 c 0.181,-4.439 4.031,-5.837 8.119,-5.837 3.089,0 7.291,0.699 7.291,4.492 0,3.855 -4.895,4.497 -9.857,5.604 -4.907,1.113 -9.869,2.748 -9.869,8.523 0,6.075 6.008,8.585 11.265,8.585 6.655,0 11.969,-2.101 12.378,-9.459 l -4.962,0 c -0.351,3.855 -3.736,5.081 -7.007,5.081 -2.975,0 -6.417,-0.818 -6.417,-3.855 0,-3.56 5.248,-4.145 9.858,-5.253 4.964,-1.112 9.869,-2.742 9.869,-8.584 0,-7.178 -6.712,-9.511 -12.844,-9.511 -6.768,0 -12.492,2.742 -12.787,10.214 L 0,0 z"
             style="fill:#2d2c2e;fill-opacity:1;fill-rule:nonzero;stroke:none"
             id="path204" /></g><g
           id="g206"
           transform="translate(2475.7051,737.2417)"><path
             d="m 0,0 6.009,0 0,-4.378 -6.009,0 0,-18.738 c 0,-2.277 0.638,-2.686 3.736,-2.686 l 2.273,0 0,-4.378 -3.794,0 c -5.133,0 -7.177,1.051 -7.177,6.598 l 0,19.204 -5.143,0 0,4.378 5.143,0 0,9.05 L 0,9.05 0,0 z"
             style="fill:#2d2c2e;fill-opacity:1;fill-rule:nonzero;stroke:none"
             id="path208" /></g><g
           id="g210"
           transform="translate(2512.1934,707.062)"><path
             d="m 0,0 -4.669,0 0,4.787 -0.113,0 c -2.102,-3.737 -5.496,-5.485 -9.812,-5.485 -7.938,0 -10.39,4.553 -10.39,11.032 l 0,19.846 4.963,0 0,-20.43 c 0,-3.68 2.337,-6.071 6.13,-6.071 6.009,0 8.928,4.027 8.928,9.455 l 0,17.046 L 0,30.18 0,0 z"
             style="fill:#2d2c2e;fill-opacity:1;fill-rule:nonzero;stroke:none"
             id="path212" /></g><g
           id="g214"
           transform="translate(2532.6426,710.7412)"><path
             d="m 0,0 c 6.654,0 9.221,5.718 9.221,11.384 0,5.951 -2.681,11.442 -9.507,11.442 -6.778,0 -9.05,-5.78 -9.05,-11.679 C -9.336,5.485 -6.418,0 0,0 m 14.013,-3.679 -4.963,0 0,4.088 -0.114,0 C 7.301,-2.918 3.45,-4.377 -0.695,-4.377 c -9.288,0 -13.899,7.353 -13.899,15.876 0,8.522 4.553,15.705 13.776,15.705 3.098,0 7.529,-1.17 9.754,-4.73 l 0.114,0 0,15.529 4.963,0 0,-41.682 z"
             style="fill:#2d2c2e;fill-opacity:1;fill-rule:nonzero;stroke:none"
             id="path216" /></g><path
           d="m 2554.611,737.242 4.963,0 0,-30.18 -4.963,0 0,30.18 z m 4.963,5.432 -4.963,0 0,6.07 4.963,0 0,-6.07 z"
           style="fill:#2d2c2e;fill-opacity:1;fill-rule:nonzero;stroke:none"
           id="path218" /><g
           id="g220"
           transform="translate(2585.9648,722.6489)"><path
             d="m 0,0 c -1.93,-1.403 -5.665,-1.46 -8.992,-2.044 -3.271,-0.585 -6.067,-1.749 -6.067,-5.429 0,-3.27 2.796,-4.435 5.837,-4.435 6.542,0 9.222,4.084 9.222,6.831 L 0,0 z m 8.053,-15.468 c -0.875,-0.528 -1.978,-0.817 -3.556,-0.817 -2.567,0 -4.202,1.397 -4.202,4.667 -2.747,-3.208 -6.426,-4.667 -10.629,-4.667 -5.484,0 -9.981,2.447 -9.981,8.461 0,6.83 5.076,8.289 10.219,9.283 5.486,1.05 10.154,0.704 10.154,4.44 0,4.315 -3.556,5.019 -6.712,5.019 -4.201,0 -7.301,-1.284 -7.53,-5.723 l -4.962,0 c 0.294,7.472 6.075,10.101 12.786,10.101 5.428,0 11.323,-1.226 11.323,-8.29 l 0,-15.529 c 0,-2.334 0,-3.385 1.578,-3.385 0.408,0 0.875,0.057 1.512,0.29 l 0,-3.85 z"
             style="fill:#2d2c2e;fill-opacity:1;fill-rule:nonzero;stroke:none"
             id="path222" /></g><g
           id="g224"
           transform="translate(2598.6475,737.2417)"><path
             d="m 0,0 4.667,0 0,-4.787 0.124,0 c 2.101,3.736 5.485,5.49 9.802,5.49 7.938,0 10.39,-4.553 10.39,-11.032 l 0,-19.851 -4.962,0 0,20.43 c 0,3.679 -2.329,6.076 -6.131,6.076 -6.008,0 -8.927,-4.032 -8.927,-9.46 l 0,-17.046 L 0,-30.18 0,0 z"
             style="fill:#2d2c2e;fill-opacity:1;fill-rule:nonzero;stroke:none"
             id="path226" /></g><g
           id="g228"
           transform="translate(2638.0156,737.2417)"><path
             d="m 0,0 6.008,0 0,-4.378 -6.008,0 0,-18.738 c 0,-2.277 0.637,-2.686 3.736,-2.686 l 2.272,0 0,-4.378 -3.793,0 c -5.134,0 -7.178,1.051 -7.178,6.598 l 0,19.204 -5.143,0 0,4.378 5.143,0 0,9.05 L 0,9.05 0,0 z"
             style="fill:#2d2c2e;fill-opacity:1;fill-rule:nonzero;stroke:none"
             id="path230" /></g><g
           id="g232"
           transform="translate(2670.4717,725.0439)"><path
             d="m 0,0 c -0.229,4.725 -3.794,8.523 -8.69,8.523 -5.2,0 -8.289,-3.912 -8.641,-8.523 L 0,0 z m 4.791,-8.409 c -1.34,-6.654 -6.132,-10.271 -12.9,-10.271 -9.631,0 -14.185,6.655 -14.48,15.876 0,9.05 5.951,15.705 14.185,15.705 10.685,0 13.956,-9.982 13.661,-17.279 l -22.588,0 c -0.182,-5.257 2.795,-9.925 9.393,-9.925 4.087,0 6.949,1.982 7.824,5.894 l 4.905,0 z"
             style="fill:#2d2c2e;fill-opacity:1;fill-rule:nonzero;stroke:none"
             id="path234" /></g><g
           id="g236"
           transform="translate(2683.9141,716.5781)"><path
             d="m 0,0 c 0.181,-4.439 4.031,-5.837 8.119,-5.837 3.09,0 7.291,0.699 7.291,4.492 0,3.855 -4.896,4.497 -9.857,5.604 -4.907,1.113 -9.869,2.748 -9.869,8.523 0,6.075 6.008,8.585 11.265,8.585 6.655,0 11.97,-2.101 12.379,-9.459 l -4.963,0 c -0.351,3.855 -3.736,5.081 -7.007,5.081 -2.975,0 -6.417,-0.818 -6.417,-3.855 0,-3.56 5.248,-4.145 9.859,-5.253 4.962,-1.112 9.868,-2.742 9.868,-8.584 0,-7.178 -6.712,-9.511 -12.845,-9.511 -6.767,0 -12.491,2.742 -12.786,10.214 L 0,0 z"
             style="fill:#2d2c2e;fill-opacity:1;fill-rule:nonzero;stroke:none"
             id="path238" /></g><g
           id="g240"
           transform="translate(2739.2813,710.7412)"><path
             d="m 0,0 c 6.655,0 9.222,5.718 9.222,11.384 0,5.951 -2.681,11.442 -9.507,11.442 -6.778,0 -9.051,-5.78 -9.051,-11.679 C -9.336,5.485 -6.416,0 0,0 m 14.014,-3.679 -4.963,0 0,4.088 -0.114,0 c -1.636,-3.327 -5.486,-4.786 -9.63,-4.786 -9.289,0 -13.899,7.353 -13.899,15.876 0,8.522 4.553,15.705 13.775,15.705 3.099,0 7.529,-1.17 9.754,-4.73 l 0.114,0 0,15.529 4.963,0 0,-41.682 z"
             style="fill:#2d2c2e;fill-opacity:1;fill-rule:nonzero;stroke:none"
             id="path242" /></g><g
           id="g244"
           transform="translate(2781.9102,725.0439)"><path
             d="M 0,0 C -0.229,4.725 -3.793,8.523 -8.689,8.523 -13.89,8.523 -16.979,4.611 -17.33,0 L 0,0 z m 4.791,-8.409 c -1.34,-6.654 -6.132,-10.271 -12.9,-10.271 -9.63,0 -14.184,6.655 -14.479,15.876 0,9.05 5.951,15.705 14.184,15.705 10.686,0 13.956,-9.982 13.662,-17.279 l -22.588,0 c -0.182,-5.257 2.794,-9.925 9.392,-9.925 4.087,0 6.949,1.982 7.824,5.894 l 4.905,0 z"
             style="fill:#2d2c2e;fill-opacity:1;fill-rule:nonzero;stroke:none"
             id="path246" /></g><g
           id="g248"
           transform="translate(2411.2783,646.4849)"><path
             d="m 0,0 c 0.181,-4.44 4.03,-5.837 8.118,-5.837 3.09,0 7.292,0.698 7.292,4.491 0,3.856 -4.896,4.497 -9.859,5.605 -4.905,1.112 -9.867,2.747 -9.867,8.523 0,6.074 6.008,8.585 11.265,8.585 6.655,0 11.969,-2.102 12.378,-9.46 l -4.963,0 c -0.351,3.855 -3.736,5.081 -7.006,5.081 -2.976,0 -6.418,-0.817 -6.418,-3.855 0,-3.56 5.248,-4.145 9.859,-5.252 4.963,-1.112 9.869,-2.743 9.869,-8.585 0,-7.177 -6.712,-9.511 -12.845,-9.511 -6.767,0 -12.492,2.742 -12.786,10.215 L 0,0 z"
             style="fill:#2d2c2e;fill-opacity:1;fill-rule:nonzero;stroke:none"
             id="path250" /></g><path
           d="m 2437.745,667.148 4.962,0 0,-30.179 -4.962,0 0,30.179 z m 4.962,5.433 -4.962,0 0,6.07 4.962,0 0,-6.07 z"
           style="fill:#2d2c2e;fill-opacity:1;fill-rule:nonzero;stroke:none"
           id="path252" /><g
           id="g254"
           transform="translate(2453.4502,646.4849)"><path
             d="m 0,0 c 0.181,-4.44 4.03,-5.837 8.119,-5.837 3.089,0 7.291,0.698 7.291,4.491 0,3.856 -4.895,4.497 -9.858,5.605 -4.906,1.112 -9.868,2.747 -9.868,8.523 0,6.074 6.008,8.585 11.265,8.585 6.655,0 11.969,-2.102 12.378,-9.46 l -4.962,0 c -0.352,3.855 -3.736,5.081 -7.007,5.081 -2.976,0 -6.418,-0.817 -6.418,-3.855 0,-3.56 5.248,-4.145 9.86,-5.252 4.963,-1.112 9.868,-2.743 9.868,-8.585 0,-7.177 -6.712,-9.511 -12.845,-9.511 -6.767,0 -12.491,2.742 -12.786,10.215 L 0,0 z"
             style="fill:#2d2c2e;fill-opacity:1;fill-rule:nonzero;stroke:none"
             id="path256" /></g><g
           id="g258"
           transform="translate(2486.5146,667.1479)"><path
             d="m 0,0 6.009,0 0,-4.378 -6.009,0 0,-18.738 c 0,-2.277 0.638,-2.686 3.736,-2.686 l 2.273,0 0,-4.377 -3.794,0 c -5.134,0 -7.177,1.05 -7.177,6.597 l 0,19.204 -5.144,0 0,4.378 5.144,0 0,9.05 L 0,9.05 0,0 z"
             style="fill:#2d2c2e;fill-opacity:1;fill-rule:nonzero;stroke:none"
             id="path260" /></g><g
           id="g262"
           transform="translate(2518.9707,654.9502)"><path
             d="m 0,0 c -0.229,4.725 -3.793,8.523 -8.689,8.523 -5.2,0 -8.29,-3.912 -8.642,-8.523 L 0,0 z m 4.792,-8.408 c -1.341,-6.655 -6.132,-10.273 -12.901,-10.273 -9.631,0 -14.184,6.655 -14.479,15.877 0,9.051 5.951,15.705 14.184,15.705 10.685,0 13.957,-9.982 13.662,-17.278 l -22.589,0 c -0.18,-5.258 2.796,-9.926 9.393,-9.926 4.088,0 6.95,1.983 7.825,5.895 l 4.905,0 z"
             style="fill:#2d2c2e;fill-opacity:1;fill-rule:nonzero;stroke:none"
             id="path264" /></g><g
           id="g266"
           transform="translate(2529.3809,667.1479)"><path
             d="m 0,0 4.668,0 0,-4.435 0.123,0 c 2.215,3.384 5.6,5.139 9.745,5.139 3.679,0 7.064,-1.46 8.289,-5.139 2.044,3.213 5.6,5.139 9.46,5.139 6.009,0 10.039,-2.511 10.039,-8.756 l 0,-22.127 -4.963,0 0,19.788 c 0,3.736 -0.988,6.716 -5.837,6.716 -4.791,0 -7.881,-3.037 -7.881,-7.705 l 0,-18.799 -4.961,0 0,19.788 c 0,3.912 -1.228,6.716 -5.667,6.716 -5.894,0 -8.052,-5.428 -8.052,-7.705 l 0,-18.799 -4.963,0 L 0,0 z"
             style="fill:#2d2c2e;fill-opacity:1;fill-rule:nonzero;stroke:none"
             id="path268" /></g><g
           id="g270"
           transform="translate(2597.8867,652.5547)"><path
             d="m 0,0 c -1.93,-1.402 -5.666,-1.459 -8.994,-2.044 -3.27,-0.584 -6.065,-1.749 -6.065,-5.428 0,-3.271 2.795,-4.435 5.837,-4.435 6.542,0 9.222,4.083 9.222,6.831 L 0,0 z m 8.053,-15.467 c -0.875,-0.528 -1.978,-0.818 -3.556,-0.818 -2.567,0 -4.202,1.397 -4.202,4.668 -2.747,-3.209 -6.427,-4.668 -10.629,-4.668 -5.485,0 -9.982,2.448 -9.982,8.461 0,6.831 5.077,8.29 10.22,9.283 5.486,1.051 10.153,0.704 10.153,4.44 0,4.316 -3.555,5.019 -6.711,5.019 -4.202,0 -7.302,-1.283 -7.531,-5.723 l -4.961,0 c 0.294,7.473 6.074,10.102 12.786,10.102 5.428,0 11.323,-1.227 11.323,-8.291 l 0,-15.529 c 0,-2.333 0,-3.384 1.578,-3.384 0.408,0 0.874,0.057 1.512,0.29 l 0,-3.85 z"
             style="fill:#2d2c2e;fill-opacity:1;fill-rule:nonzero;stroke:none"
             id="path272" /></g><g
           id="g274"
           transform="translate(2613.6016,646.4849)"><path
             d="m 0,0 c 0.181,-4.44 4.031,-5.837 8.119,-5.837 3.09,0 7.291,0.698 7.291,4.491 0,3.856 -4.895,4.497 -9.857,5.605 -4.907,1.112 -9.869,2.747 -9.869,8.523 0,6.074 6.008,8.585 11.265,8.585 6.655,0 11.97,-2.102 12.379,-9.46 l -4.963,0 c -0.351,3.855 -3.736,5.081 -7.007,5.081 -2.975,0 -6.417,-0.817 -6.417,-3.855 0,-3.56 5.248,-4.145 9.86,-5.252 4.961,-1.112 9.867,-2.743 9.867,-8.585 0,-7.177 -6.712,-9.511 -12.844,-9.511 -6.768,0 -12.492,2.742 -12.787,10.215 L 0,0 z"
             style="fill:#2d2c2e;fill-opacity:1;fill-rule:nonzero;stroke:none"
             id="path276" /></g><g
           id="g278"
           transform="translate(2676.9639,654.9502)"><path
             d="m 0,0 c -0.228,4.725 -3.792,8.523 -8.688,8.523 -5.201,0 -8.291,-3.912 -8.643,-8.523 L 0,0 z m 4.792,-8.408 c -1.341,-6.655 -6.132,-10.273 -12.9,-10.273 -9.631,0 -14.184,6.655 -14.479,15.877 0,9.051 5.951,15.705 14.184,15.705 10.685,0 13.956,-9.982 13.661,-17.278 l -22.589,0 c -0.18,-5.258 2.796,-9.926 9.393,-9.926 4.088,0 6.95,1.983 7.825,5.895 l 4.905,0 z"
             style="fill:#2d2c2e;fill-opacity:1;fill-rule:nonzero;stroke:none"
             id="path280" /></g><path
           d="m 2408.54,597.059 4.963,0 0,-30.179 -4.963,0 0,30.179 z m 4.963,5.433 -4.963,0 0,6.07 4.963,0 0,-6.07 z"
           style="fill:#2d2c2e;fill-opacity:1;fill-rule:nonzero;stroke:none"
           id="path282" /><g
           id="g284"
           transform="translate(2421.2129,597.0586)"><path
             d="m 0,0 4.668,0 0,-4.787 0.123,0 c 2.102,3.737 5.485,5.491 9.801,5.491 7.939,0 10.391,-4.554 10.391,-11.033 l 0,-19.85 -4.962,0 0,20.43 c 0,3.679 -2.33,6.075 -6.132,6.075 -6.008,0 -8.927,-4.031 -8.927,-9.459 l 0,-17.046 -4.962,0 L 0,0 z"
             style="fill:#2d2c2e;fill-opacity:1;fill-rule:nonzero;stroke:none"
             id="path286" /></g><g
           id="g288"
           transform="translate(2455.7314,592.6812)"><path
             d="m 0,0 -5.076,0 0,4.377 5.076,0 0,4.498 c 0,4.905 2.919,7.472 8.348,7.472 0.93,0 2.28,-0.177 3.213,-0.466 l 0,-4.321 c -0.875,0.29 -1.931,0.409 -2.804,0.409 -2.397,0 -3.794,-0.761 -3.794,-3.385 l 0,-4.207 5.837,0 0,-4.377 -5.837,0 0,-25.802 -4.963,0 L 0,0 z"
             style="fill:#2d2c2e;fill-opacity:1;fill-rule:nonzero;stroke:none"
             id="path290" /></g><g
           id="g292"
           transform="translate(2483.9951,570.5586)"><path
             d="M 0,0 C 5.2,0 9.403,4.083 9.403,11.384 9.403,18.738 5.2,22.826 0,22.826 -5.19,22.826 -9.393,18.738 -9.393,11.384 -9.393,4.083 -5.19,0 0,0 m 0,27.204 c 9.573,0 14.659,-6.95 14.659,-15.82 C 14.659,2.567 9.573,-4.378 0,-4.378 c -9.573,0 -14.65,6.945 -14.65,15.762 0,8.87 5.077,15.82 14.65,15.82"
             style="fill:#2d2c2e;fill-opacity:1;fill-rule:nonzero;stroke:none"
             id="path294" /></g><g
           id="g296"
           transform="translate(2504.3398,597.0586)"><path
             d="m 0,0 4.668,0 0,-6.359 0.114,0 c 2.396,4.843 5.724,7.239 11.095,7.063 l 0,-5.258 C 7.882,-4.554 4.963,-9.103 4.963,-16.75 l 0,-13.429 -4.963,0 L 0,0 z"
             style="fill:#2d2c2e;fill-opacity:1;fill-rule:nonzero;stroke:none"
             id="path298" /></g><g
           id="g300"
           transform="translate(2523.9619,597.0586)"><path
             d="m 0,0 4.668,0 0,-4.435 0.124,0 c 2.215,3.385 5.6,5.139 9.744,5.139 3.68,0 7.064,-1.46 8.289,-5.139 2.045,3.209 5.6,5.139 9.46,5.139 6.008,0 10.04,-2.51 10.04,-8.756 l 0,-22.127 -4.963,0 0,19.788 c 0,3.736 -0.988,6.717 -5.838,6.717 -4.791,0 -7.88,-3.037 -7.88,-7.705 l 0,-18.8 -4.963,0 0,19.788 c 0,3.912 -1.226,6.717 -5.666,6.717 -5.894,0 -8.053,-5.429 -8.053,-7.705 l 0,-18.8 -4.962,0 L 0,0 z"
             style="fill:#2d2c2e;fill-opacity:1;fill-rule:nonzero;stroke:none"
             id="path302" /></g><g
           id="g304"
           transform="translate(2587.2109,609.5557)"><path
             d="m 0,0 6.369,0 -7.653,-8.352 -3.736,0 L 0,0 z m 5.258,-27.09 c -1.931,-1.402 -5.667,-1.459 -8.994,-2.044 -3.271,-0.585 -6.065,-1.749 -6.065,-5.429 0,-3.27 2.794,-4.434 5.836,-4.434 6.541,0 9.223,4.083 9.223,6.831 l 0,5.076 z m 8.052,-15.467 c -0.875,-0.528 -1.978,-0.818 -3.556,-0.818 -2.567,0 -4.202,1.398 -4.202,4.668 -2.747,-3.209 -6.427,-4.668 -10.628,-4.668 -5.486,0 -9.983,2.448 -9.983,8.461 0,6.831 5.077,8.29 10.22,9.284 5.485,1.05 10.153,0.698 10.153,4.434 0,4.321 -3.556,5.025 -6.711,5.025 -4.203,0 -7.302,-1.288 -7.531,-5.724 l -4.963,0 c 0.296,7.473 6.077,10.102 12.787,10.102 5.429,0 11.325,-1.227 11.325,-8.29 l 0,-15.53 c 0,-2.333 0,-3.384 1.577,-3.384 0.409,0 0.875,0.057 1.512,0.29 l 0,-3.85 z"
             style="fill:#2d2c2e;fill-opacity:1;fill-rule:nonzero;stroke:none"
             id="path306" /></g><g
           id="g308"
           transform="translate(2612.043,597.0586)"><path
             d="m 0,0 6.008,0 0,-4.377 -6.008,0 0,-18.739 c 0,-2.277 0.637,-2.685 3.736,-2.685 l 2.272,0 0,-4.378 -3.793,0 c -5.134,0 -7.178,1.051 -7.178,6.598 l 0,19.204 -5.143,0 0,4.377 5.143,0 0,9.051 L 0,9.051 0,0 z"
             style="fill:#2d2c2e;fill-opacity:1;fill-rule:nonzero;stroke:none"
             id="path310" /></g><path
           d="m 2623.841,597.059 4.962,0 0,-30.179 -4.962,0 0,30.179 z m 4.962,5.433 -4.962,0 0,6.07 4.962,0 0,-6.07 z"
           style="fill:#2d2c2e;fill-opacity:1;fill-rule:nonzero;stroke:none"
           id="path312" /><g
           id="g314"
           transform="translate(2657,587.3716)"><path
             d="m 0,0 c -0.75,3.793 -3.384,6.013 -7.473,6.013 -7.176,0 -9.392,-5.666 -9.392,-11.793 0,-5.548 2.51,-11.033 8.812,-11.033 4.782,0 7.644,2.8 8.291,7.354 l 5.076,0 c -1.112,-7.354 -5.723,-11.732 -13.309,-11.732 -9.222,0 -14.127,6.422 -14.127,15.411 0,9.046 4.668,16.171 14.241,16.171 C -1.046,10.391 4.44,7.178 5.144,0 L 0,0 z"
             style="fill:#2d2c2e;fill-opacity:1;fill-rule:nonzero;stroke:none"
             id="path316" /></g><g
           id="g318"
           transform="translate(2686.5576,582.4658)"><path
             d="m 0,0 c -1.931,-1.402 -5.667,-1.459 -8.994,-2.044 -3.271,-0.585 -6.066,-1.749 -6.066,-5.429 0,-3.27 2.795,-4.434 5.837,-4.434 6.541,0 9.223,4.083 9.223,6.831 L 0,0 z m 8.052,-15.467 c -0.875,-0.528 -1.978,-0.818 -3.557,-0.818 -2.566,0 -4.201,1.398 -4.201,4.668 -2.748,-3.209 -6.427,-4.668 -10.629,-4.668 -5.485,0 -9.981,2.448 -9.981,8.461 0,6.83 5.076,8.29 10.219,9.283 5.486,1.051 10.154,0.699 10.154,4.435 0,4.321 -3.556,5.024 -6.712,5.024 -4.202,0 -7.302,-1.288 -7.53,-5.723 l -4.962,0 c 0.294,7.473 6.065,10.102 12.787,10.102 5.427,0 11.322,-1.227 11.322,-8.291 l 0,-15.529 c 0,-2.333 0,-3.384 1.578,-3.384 0.409,0 0.875,0.057 1.512,0.29 l 0,-3.85 z"
             style="fill:#2d2c2e;fill-opacity:1;fill-rule:nonzero;stroke:none"
             id="path320" /></g></g></g></g></svg>